<?xml version="1.0" encoding="UTF-8"?>
<svg xmlns="http://www.w3.org/2000/svg" height="392" width="392" class="pyqrcode"><path transform="scale(8)" stroke="#000" class="pyqrline" d="M4 4.5h7m3 0h1m6 0h4m4 0h2m2 0h2m3 0h7m-41 1h1m5 0h1m4 0h4m2 0h3m2 0h1m1 0h3m4 0h1m2 0h1m5 0h1m-41 1h1m1 0h3m1 0h1m1 0h3m1 0h1m3 0h3m3 0h2m1 0h2m4 0h1m2 0h1m1 0h3m1 0h1m-41 1h1m1 0h3m1 0h1m1 0h1m2 0h2m1 0h1m2 0h1m1 0h4m1 0h1m1 0h1m1 0h2m1 0h2m1 0h1m1 0h3m1 0h1m-41 1h1m1 0h3m1 0h1m3 0h3m2 0h1m1 0h1m1 0h1m2 0h1m1 0h1m3 0h5m1 0h1m1 0h3m1 0h1m-41 1h1m5 0h1m2 0h8m2 0h2m2 0h1m2 0h1m1 0h1m3 0h1m1 0h1m5 0h1m-41 1h7m1 0h1m1 0h1m1 0h1m1 0h1m1 0h1m1 0h1m1 0h1m1 0h1m1 0h1m1 0h1m1 0h1m1 0h1m1 0h1m1 0h7m-32 1h1m1 0h2m5 0h2m1 0h2m1 0h1m2 0h2m2 0h1m-29 1h2m1 0h2m1 0h1m2 0h1m2 0h3m3 0h3m1 0h2m1 0h2m2 0h1m4 0h2m-39 1h2m3 0h1m1 0h1m1 0h3m2 0h1m4 0h1m1 0h1m1 0h3m1 0h1m1 0h1m1 0h1m2 0h3m2 0h1m-40 1h1m1 0h6m1 0h1m2 0h1m5 0h1m2 0h2m3 0h3m4 0h2m3 0h2m-38 1h1m1 0h1m2 0h4m3 0h3m1 0h1m1 0h2m2 0h1m1 0h1m1 0h2m1 0h2m1 0h4m-37 1h7m2 0h1m6 0h1m2 0h1m3 0h2m2 0h1m4 0h3m3 0h1m-39 1h1m3 0h1m1 0h1m1 0h1m1 0h1m1 0h1m1 0h2m1 0h1m3 0h1m3 0h1m1 0h1m1 0h2m2 0h1m1 0h1m1 0h1m1 0h1m-41 1h2m3 0h11m3 0h3m3 0h2m1 0h1m1 0h8m2 0h1m-40 1h1m1 0h2m2 0h1m1 0h1m2 0h2m2 0h1m1 0h4m1 0h2m2 0h1m3 0h1m1 0h1m1 0h6m-41 1h2m3 0h4m1 0h4m3 0h2m2 0h1m2 0h3m6 0h1m3 0h1m-38 1h3m1 0h1m3 0h2m1 0h1m2 0h1m1 0h1m2 0h2m1 0h4m1 0h1m1 0h1m1 0h3m2 0h4m-37 1h1m2 0h2m1 0h2m1 0h1m2 0h7m2 0h5m2 0h2m2 0h4m1 0h1m-41 1h2m1 0h3m2 0h2m2 0h1m1 0h1m2 0h1m1 0h2m3 0h1m5 0h2m2 0h1m1 0h4m-39 1h6m2 0h1m3 0h2m2 0h6m5 0h1m2 0h1m2 0h1m2 0h2m1 0h1m-40 1h1m3 0h1m1 0h1m3 0h2m1 0h2m1 0h1m1 0h1m1 0h3m2 0h2m3 0h1m3 0h2m1 0h1m-37 1h2m1 0h7m3 0h1m2 0h1m1 0h1m1 0h1m3 0h3m4 0h1m2 0h3m-36 1h1m1 0h1m2 0h3m3 0h1m1 0h2m5 0h1m1 0h2m1 0h2m1 0h2m2 0h1m1 0h1m2 0h1m-41 1h3m2 0h5m1 0h1m3 0h1m2 0h2m2 0h2m2 0h2m4 0h1m1 0h3m1 0h2m-39 1h1m1 0h1m3 0h1m1 0h2m2 0h5m1 0h3m2 0h2m1 0h2m3 0h5m1 0h3m-39 1h1m1 0h4m2 0h2m5 0h1m2 0h1m2 0h10m2 0h3m2 0h1m-41 1h3m1 0h1m4 0h1m1 0h2m1 0h1m2 0h5m1 0h1m2 0h2m3 0h1m1 0h8m-38 1h4m3 0h2m4 0h2m1 0h3m1 0h1m1 0h2m4 0h1m1 0h1m1 0h1m1 0h1m1 0h2m-41 1h1m1 0h3m3 0h1m1 0h1m3 0h2m1 0h1m1 0h1m4 0h2m2 0h1m1 0h2m1 0h1m2 0h2m-38 1h2m1 0h5m1 0h1m1 0h2m3 0h1m1 0h2m2 0h1m2 0h3m1 0h5m1 0h1m2 0h1m1 0h1m-41 1h3m1 0h1m3 0h1m1 0h1m1 0h3m1 0h4m1 0h2m2 0h2m3 0h3m1 0h1m1 0h1m1 0h1m1 0h1m-41 1h2m2 0h1m1 0h1m2 0h3m4 0h4m5 0h1m1 0h1m3 0h8m-31 1h1m3 0h1m2 0h2m5 0h1m2 0h3m2 0h3m3 0h2m1 0h1m-40 1h7m1 0h2m2 0h1m1 0h1m1 0h2m1 0h1m2 0h1m3 0h2m3 0h2m1 0h1m1 0h2m-38 1h1m5 0h1m2 0h1m1 0h2m2 0h2m8 0h3m1 0h1m2 0h1m3 0h2m1 0h1m-40 1h1m1 0h3m1 0h1m1 0h1m5 0h1m1 0h2m2 0h5m1 0h1m1 0h2m1 0h6m1 0h1m-39 1h1m1 0h3m1 0h1m1 0h1m1 0h3m1 0h2m2 0h2m1 0h1m1 0h1m1 0h4m2 0h1m3 0h1m1 0h1m1 0h2m-41 1h1m1 0h3m1 0h1m2 0h2m1 0h1m3 0h1m1 0h3m1 0h1m1 0h2m1 0h3m1 0h3m1 0h3m1 0h2m-41 1h1m5 0h1m2 0h1m1 0h1m1 0h1m1 0h1m1 0h1m1 0h2m2 0h3m2 0h1m5 0h1m1 0h3m1 0h1m-41 1h7m5 0h2m1 0h1m4 0h3m2 0h1m4 0h3m1 0h1m1 0h3"/></svg>
